<svg xmlns="http://www.w3.org/2000/svg" width="176.9" height="48.905" viewBox="0 0 176.9 48.905">
  <g id="desktop" transform="translate(-10.5 -154.3)">
    <path id="Path_4" data-name="Path 4" d="M43.8,201.011V213.33L10.5,197.809v-7.975L43.8,174.4v12.262l-17.893,7.2Z" transform="translate(0 -14.355)" fill="#3fbdf1"/>
    <path id="Path_5" data-name="Path 5" d="M168.634,203.291H154.6V154.5h14.492l14.52,24.181V154.5h14.063v48.791H184.584l-15.949-26.01v26.01Z" transform="translate(-102.912 -0.143)" fill="#3fbdf1"/>
    <path id="Path_6" data-name="Path 6" d="M357.356,203.177h18.293L357.184,154.3H344.579L326,203.177h18.293c-.858-2.715-2.4-4.716-5-5.517l10.862-23.581v14.835a5,5,0,0,0,0,9.89v4.4h1.4v-4.4a5,5,0,0,0,0-9.89V174.079l10.862,23.581C359.757,198.461,358.242,200.461,357.356,203.177Z" transform="translate(-225.321)" fill="#3fbdf1"/>
    <path id="Path_7" data-name="Path 7" d="M546.2,197.809,512.9,213.33V201.011l17.893-7.146-17.893-7.2V174.4l33.3,15.406Z" transform="translate(-358.799 -14.355)" fill="#3fbdf1"/>
  </g>
</svg>
