<svg xmlns="http://www.w3.org/2000/svg" width="58.297" height="28.904" viewBox="0 0 58.297 28.904">
  <g id="Group_299" data-name="Group 299" transform="translate(-46.188 -13.102)">
    <path id="Path_10" data-name="Path 10" d="M162.894,183.336H154.6V154.5h8.565l8.582,14.291V154.5h8.311v28.836h-7.737l-9.426-15.372Z" transform="translate(-108.412 -141.364)" fill="#3fbdf1"/>
    <path id="Path_11" data-name="Path 11" d="M344.531,183.187h10.811L344.43,154.3h-7.45L326,183.187h10.811a4.521,4.521,0,0,0-2.956-3.26l6.419-13.937v8.767a2.955,2.955,0,0,0,0,5.845v2.6h.828v-2.6a2.955,2.955,0,0,0,0-5.845V165.99l6.419,13.937A4.531,4.531,0,0,0,344.531,183.187Z" transform="translate(-250.858 -141.198)" fill="#3fbdf1"/>
  </g>
</svg>
