<svg xmlns="http://www.w3.org/2000/svg" width="607.748" height="767.1" viewBox="0 0 607.748 767.1">
  <g id="communication_business_social_media_messaging_message_smartphone_mobile_man" data-name="communication, business, social media | messaging, message, smartphone, mobile, man" transform="translate(1.206 2.11)">
    <g id="Group">
      <path id="Path" d="M214.076,263.874c-56.924,33.919-126.364-6.046-123.1-6.741,107.61-23.413,117.118-91.344,117.118-91.344-21.483-52.524-80.042-35.615-80.042-35.615-1.695,74.537-90.356,78.735-90.356,78.735-5.695-24.184-5.381-80.651-5.381-80.651C5.441,109.457,0,117.437,0,117.437,8.475,42.814,42.6,18.757,42.6,18.757,48.288,13.457,73.7,1.543,86.754,0l.466,2.069S74.025,35.038,99.313,37.209c21.28,1.866,33.373-24.345,36.669-32.664,27.669,8.582,54.076,27.788,71.644,60.1,41.559,76.437,6.449,199.233,6.449,199.233Z" transform="translate(210.432 101.88)" fill="#2e2e2e"/>
      <path id="Path-2" data-name="Path" d="M185.212,0,323.525,91.582c26.822,17.757,23.373,58.171-6.042,71.12L155.618,233.983a95.78,95.78,0,0,1-93.457-9.15L0,181.349" transform="translate(245.449 333.59)" fill="none" stroke="#000" stroke-miterlimit="10" stroke-width="4.21"/>
      <path id="Path-3" data-name="Path" d="M202.059,3.087,197.406,0,340.4,94.651c26.822,17.757,23.373,58.171-6.042,71.12L172.491,237.052a95.78,95.78,0,0,1-93.457-9.15L0,171.58" transform="translate(228.601 360.039)" fill="none" stroke="#000" stroke-miterlimit="10" stroke-width="4.21"/>
      <g id="Group-2" data-name="Group" transform="translate(52.7 342.18)">
        <path id="Path-4" data-name="Path" d="M291.669,149.058,142.9,214.581a88.039,88.039,0,0,1-85.89-8.412L0,166.094a89.176,89.176,0,0,1,26.025-13.822,550.662,550.662,0,0,0,68.644-28.636,127.81,127.81,0,0,0,67.695-85.247c2.983-12.677,5.6-25.5,7.746-38.388L301.042,86.6c24.644,16.315,17.652,50.565-9.373,62.454Z" transform="translate(206.655 0)" fill="#3fbdf1"/>
        <path id="Path-5" data-name="Path" d="M8.641,18.978S34.725,8.158,39.725,0c0,0,.941,18.52-3.941,24.846S1.734,47.894.166,45.8,8.641,18.978,8.641,18.978Z" transform="translate(106.337 319.976)" fill="#3fbdf1"/>
        <path id="Path-6" data-name="Path" d="M34.681,30.18s4.746,6.445,21.585,0S109.74,0,109.74,0,99.52,27.458,95.816,30.476,22.147,67.787,22.147,67.787-9.133,72.239,2.655,49.98Z" transform="translate(0 352.903)" fill="#3fbdf1"/>
      </g>
      <g id="Group-3" data-name="Group" transform="translate(118.399 101.405)">
        <path id="Path-7" data-name="Path" d="M69.677,0C31.118,15.018-9.687,50.3,2.05,148.015L5.313,173.4" transform="translate(0 265.095)" fill="none" stroke="#000" stroke-miterlimit="10" stroke-width="4.21"/>
        <path id="Path-8" data-name="Path" d="M0,201.285c6.305-9.006,12-18.74,15.491-29.221s3.669-21.835,4.644-32.859c2.593-29.561,6.61-54.008,18.008-81.542C48.017,33.834,77.839,3.138,107.508.229L110.178,0" transform="translate(69.618 0)" fill="none" stroke="#000" stroke-miterlimit="10" stroke-width="4.21"/>
        <path id="Path-9" data-name="Path" d="M.676,1.213C.532.8.388.407.235,0" transform="translate(143.518 261.72)" fill="none" stroke="#000" stroke-miterlimit="10" stroke-width="4.21"/>
        <path id="Path-10" data-name="Path" d="M5.4,101.283C3.944,92.71,2.859,84.4,2.011,76.513a1.7,1.7,0,0,0-.051-.441C-2.48,32.037,2.011,0,2.011,0" transform="translate(124.327 106.269)" fill="none" stroke="#000" stroke-miterlimit="10" stroke-width="4.21"/>
      </g>
      <g id="Group-4" data-name="Group" transform="translate(140.5 2.136)">
        <path id="Path-11" data-name="Path" d="M82.856,39.554,76.076,42.2c0,.212,0,2.858-.288,6.563a75.775,75.775,0,0,1-2.1,13.118c.6-2.934,1.475-9.9-2.356-14.755a1.942,1.942,0,0,0-.2-.28c-2.542-3.061-5.678-1.849-8.195.254a23.832,23.832,0,0,0-4.508,5.088,33.361,33.361,0,0,0-2.949-16.51,39.553,39.553,0,0,0-6.093-9.726C53.22,39.181,48.3,47.839,48.3,47.839,35.288,50.9,26.263,50.247,19.534,49.086c-5.669-5.291-3.7-24.345-3.7-24.345C10.127,29.4,11.5,47.449,11.5,47.449a41.457,41.457,0,0,1,.263-14.187,25.933,25.933,0,0,0-4.72,13.644l-.1-.051a11.484,11.484,0,0,1-1.161-.365A20.336,20.336,0,0,1,3.754,45.27L0,42.726C5.669,13.784,25.491-4.413,56.119.929A36.575,36.575,0,0,1,62,2.455c20.178,10.523,20.856,37.1,20.856,37.1Z" transform="translate(128.424 0)" fill="#3fbdf1"/>
        <path id="Path-12" data-name="Path" d="M15.271,25.555,7.551,2.3A3.34,3.34,0,0,0,5.195.073a.365.365,0,0,1-.22-.051c-.076-.051-.093,0-.144,0a4.091,4.091,0,0,0-.534,0A3.389,3.389,0,0,0,1.992.938,6.2,6.2,0,0,0,0,5.484,6.363,6.363,0,0,0,.314,7.451c1.695,4.91,4.712,13.771,6.144,17.808" transform="translate(21.229 295.867)" fill="#3fbdf1"/>
        <path id="Path-13" data-name="Path" d="M34.754,29.747,26.432,4.265a.365.365,0,0,1-.22-.051c-.076-.051-.093,0-.144,0L21.7,3.366c-2.331-.432-4.661-.9-6.992-1.331-2.8-.56-5.61-1.026-8.4-1.7A9.376,9.376,0,0,0,4.3,0,3.312,3.312,0,0,0,1.992.924,6.133,6.133,0,0,0,0,5.486,5.939,5.939,0,0,0,.314,7.428C2.187,12.923,5.754,23.319,6.89,26.474Z" transform="translate(0 291.675)" fill="#3fbdf1"/>
      </g>
      <g id="Group-5" data-name="Group" transform="translate(0)">
        <path id="Path-14" data-name="Path" d="M197.94,56.4c-.847,9.438-1.288,20.86-1.585,35.217,0,30.527-33.729,55.805-63.7,61.589L77.686,165.627c-7.263,1.408-13.695-3.129-18.746-6.139-5.195-3.1-10.517-6.784-14.263-9.523-5.39-3.943-15.771-.772-13.644,8.632a11.988,11.988,0,0,0,6.941,8.064,22.722,22.722,0,0,0,2.949,1.085,1.756,1.756,0,0,1,.051,3.392c-4.763,1.645-13.483,2.62-27.551-2.544C-4.6,161.955-6,203.116,18.643,210.282h.093c22.7,6.869,47.136,5.987,70.6,5a478.429,478.429,0,0,0,79.271-9.675c13.28-2.815,26.924-5.741,39.076-11.753,20.932-10.354,36.017-22.225,50.364-40.7,16.1-20.716,22.974-47.894,26.856-73.376,4.441-29.154-1.695-53.77-17.314-78.862L267.016,0" transform="translate(141.856 151.267)" fill="none" stroke="#000" stroke-miterlimit="10" stroke-width="4.21"/>
        <path id="Path-15" data-name="Path" d="M15.271,25.555,7.551,2.3A3.34,3.34,0,0,0,5.195.073a.365.365,0,0,1-.22-.051c-.076-.051-.093,0-.144,0a4.091,4.091,0,0,0-.534,0A3.389,3.389,0,0,0,1.992.938,6.2,6.2,0,0,0,0,5.484,6.363,6.363,0,0,0,.314,7.451c1.695,4.91,4.712,13.771,6.144,17.808" transform="translate(161.729 298.004)" fill="none" stroke="#000" stroke-miterlimit="10" stroke-width="4.21"/>
        <path id="Path-16" data-name="Path" d="M26.432,4.265a.365.365,0,0,1-.22-.051c-.076-.051-.093,0-.144,0L21.7,3.366c-2.331-.432-4.661-.9-6.992-1.331-2.8-.56-5.61-1.026-8.4-1.7A9.376,9.376,0,0,0,4.3,0,3.312,3.312,0,0,0,1.992.924,6.133,6.133,0,0,0,0,5.486,5.939,5.939,0,0,0,.314,7.428C2.187,12.923,5.754,23.319,6.89,26.474" transform="translate(140.5 293.812)" fill="none" stroke="#000" stroke-miterlimit="10" stroke-width="4.21"/>
        <path id="Path-17" data-name="Path" d="M0,0C0,11.024,2.144,21.564,7.432,31.3c4.237,7.818,10.458,15.7,19.356,18.282a21.623,21.623,0,0,0,6.068.848c15.1-.068,17.458-17.969,17.458-17.969" transform="translate(273.33 48.212)" fill="none" stroke="#000" stroke-miterlimit="10" stroke-width="4.21"/>
        <path id="Path-18" data-name="Path" d="M291.355,0V.051a89.694,89.694,0,0,1-3.593,16.112,40.83,40.83,0,0,0-1.39,19.4l2.347,13.661a3.289,3.289,0,0,0,2.339,2.595c29.8,8.658,56.246,27.763,71.635,55.348,19.195,34.445,22.695,75.928,21.144,114.6-1.364,33.521-6.78,66.846-14.466,99.468a139.129,139.129,0,0,1-73.678,92.777,596.672,596.672,0,0,1-74.635,31.163,95.933,95.933,0,0,0-59.5,57.01L101.508,661.957a24.968,24.968,0,0,1-12.186,13.568L31.779,704.45a35.717,35.717,0,0,1-23.5,2.985,10.5,10.5,0,0,1-3.153-19.283l29.39-17.494L74.931,464.5a128.9,128.9,0,0,1,59.5-89.886,51.775,51.775,0,0,1,6.576-3.392l87.61-38.066" transform="translate(52.848 54.605)" fill="none" stroke="#000" stroke-miterlimit="10" stroke-width="4.21"/>
        <path id="Path-19" data-name="Path" d="M14.89,1.073A39.315,39.315,0,0,0,.585.343,4.54,4.54,0,0,0,0,.394" transform="translate(305.228 0)" fill="none" stroke="#000" stroke-miterlimit="10" stroke-width="4.21"/>
        <path id="Path-20" data-name="Path" d="M4.32,0s-15.5,35.556,12.22,37.311c24.873,1.594,34-32.223,34-32.223" transform="translate(294.578 101.906)" fill="none" stroke="#000" stroke-miterlimit="10" stroke-width="4.21"/>
        <path id="Path-21" data-name="Path" d="M78.1,65.214c.178-.653,2.847-10.294-2.254-16.366S63.83,53.189,63.135,54.232c1.356-14.95-9.025-26.287-9.025-26.287,3.831,13.237-1.1,21.886-1.1,21.886-18.958,4.443-29.39,1.06-36.788-.4a41.313,41.313,0,0,1,.271-14.178,25.721,25.721,0,0,0-4.72,13.627h-.119a25.942,25.942,0,0,1-7.9-3.6L0,42.734C5.678,13.8,25.491-4.414,56.119.928S87.6,41.513,87.6,41.513L80.78,44.167S80.839,55.8,78.1,65.214Z" transform="translate(264.152 0.102)" fill="none" stroke="#000" stroke-miterlimit="10" stroke-width="4.21"/>
        <path id="Path-22" data-name="Path" d="M0,0V14.068A1.093,1.093,0,0,0,1.424,15.1a8.3,8.3,0,0,0,2.983-1.747" transform="translate(285.211 63.806)" fill="none" stroke="#000" stroke-miterlimit="10" stroke-width="4.21"/>
        <ellipse id="Oval" cx="8.617" cy="11.988" rx="8.617" ry="11.988" transform="translate(260.068 55.276) rotate(-21.3)" fill="none" stroke="#000" stroke-miterlimit="10" stroke-width="4.21"/>
        <ellipse id="Oval-2" data-name="Oval" cx="8.617" cy="11.988" rx="8.617" ry="11.988" transform="translate(286.755 59.299) rotate(-21.3)" fill="none" stroke="#000" stroke-miterlimit="10" stroke-width="4.21"/>
        <path id="Path-23" data-name="Path" d="M0,1.193s2.627-3,8.136.517" transform="translate(281.483 63.342)" fill="none" stroke="#000" stroke-miterlimit="10" stroke-width="4.21"/>
        <path id="Path-24" data-name="Path" d="M0,0S1.907,6.462,7.517,27.407" transform="translate(297.652 96.903)" fill="none" stroke="#000" stroke-miterlimit="10" stroke-width="4.21"/>
        <path id="Path-25" data-name="Path" d="M0,116.241l33.051-17.85A13.237,13.237,0,0,0,39.907,88.1C45.4,34.123,43.72,0,43.72,0" transform="translate(157.195 592.775)" fill="none" stroke="#000" stroke-miterlimit="10" stroke-width="4.21"/>
        <path id="Path-26" data-name="Path" d="M127.195,88.944,0,0" transform="translate(0 343.274)" fill="none" stroke="#000" stroke-miterlimit="10" stroke-width="4.21"/>
        <path id="Path-27" data-name="Path" d="M119.991,83.916,0,0" transform="translate(0 372.809)" fill="none" stroke="#000" stroke-miterlimit="10" stroke-width="4.21"/>
      </g>
      <path id="Path-28" data-name="Path" d="M167.178,14.125V86.941A17.24,17.24,0,0,1,156.923,102.7L66.669,142.7,39.076,184.653a5.932,5.932,0,0,1-10.83-3.248V159.731l-9.254,4.1A13.56,13.56,0,0,1,0,151.463V90.655A38.9,38.9,0,0,1,23.415,54.972l124.034-53.8a14.111,14.111,0,0,1,19.729,12.957Z" transform="translate(439.364 273.539)" fill="#d7e8f0"/>
      <g id="Group-6" data-name="Group" transform="translate(466.304 321.826)">
        <ellipse id="Oval-3" data-name="Oval" cx="17.497" cy="12.09" rx="17.497" ry="12.09" transform="translate(0 65.413) rotate(-62.6)" fill="#fff"/>
        <ellipse id="Oval-4" data-name="Oval" cx="17.497" cy="12.09" rx="17.497" ry="12.09" transform="translate(38.546 48.905) rotate(-62.6)" fill="#fff"/>
        <ellipse id="Oval-5" data-name="Oval" cx="17.497" cy="12.09" rx="17.497" ry="12.09" transform="translate(75.795 31.078) rotate(-62.6)" fill="#fff"/>
      </g>
    </g>
  </g>
</svg>
