<svg xmlns="http://www.w3.org/2000/svg" width="610.822" height="425.02" viewBox="0 0 610.822 425.02">
  <g id="support_technology_error_deadline_stress_man_customer_service" data-name="support, technology, error | deadline, stress, man, customer service" transform="translate(2.491 2.002)">
    <g id="Group">
      <rect id="Rectangle" width="143.996" height="196.397" rx="16.64" transform="translate(422.083 43.163)" fill="none" stroke="#ccdde2" stroke-miterlimit="10" stroke-width="4.83"/>
      <rect id="Rectangle-2" data-name="Rectangle" width="120.818" height="34.543" rx="8.32" transform="translate(434.41 63.396)" fill="none" stroke="#ccdde2" stroke-miterlimit="10" stroke-width="4.83"/>
      <g id="Group-2" data-name="Group" transform="translate(475.585 70.803)">
        <ellipse id="Oval" cx="3.57" cy="3.572" rx="3.57" ry="3.572" transform="translate(14.926 0)" fill="#d7e8f0"/>
        <path id="Path" d="M0,9.982a9.976,9.976,0,1,1,19.951,0Z" transform="translate(8.521 9.753)" fill="#d7e8f0"/>
        <path id="Shape" d="M0,19.247A19.231,19.231,0,1,1,19.232,38.486,19.237,19.237,0,0,1,0,19.247Z" transform="translate(0 64.158)" fill="#d7e8f0"/>
      </g>
      <path id="Shape-2" data-name="Shape" d="M4.282,52.526A35.547,35.547,0,1,1,35.561,71.19,35.612,35.612,0,0,1,4.282,52.526Z" transform="translate(238.656 80.668)" fill="#3fbdf1"/>
      <path id="Shape-3" data-name="Shape" d="M5.321,30.5a17.789,17.789,0,1,1,12.474,5.107A17.815,17.815,0,0,1,5.321,30.5Z" transform="translate(179.938 155.641)" fill="#3fbdf1"/>
      <g id="Group-3" data-name="Group" transform="translate(88.446)">
        <g id="Group-4" data-name="Group" transform="translate(358.048 113.36)">
          <path id="Path-2" data-name="Path" d="M0,.49H93.943" transform="translate(0 -0.49)" fill="none" stroke="#ccdde2" stroke-miterlimit="10" stroke-width="4"/>
          <path id="Path-3" data-name="Path" d="M0,.49H93.943" transform="translate(0 8.764)" fill="none" stroke="#ccdde2" stroke-miterlimit="10" stroke-width="4"/>
          <path id="Path-4" data-name="Path" d="M0,.49H93.943" transform="translate(0 68.346)" fill="none" stroke="#ccdde2" stroke-miterlimit="10" stroke-width="4"/>
          <path id="Path-5" data-name="Path" d="M0,.49H50.3" transform="translate(21.817 77.101)" fill="none" stroke="#ccdde2" stroke-miterlimit="10" stroke-width="4"/>
        </g>
        <g id="Group-5" data-name="Group" transform="translate(0)">
          <path id="Path-6" data-name="Path" d="M0,0C8.285,10.42,16.166,23.334,23.292,39.247c43.391,96.962-10.844,146.171-10.844,146.171" transform="translate(477.64 170.05)" fill="none" stroke="#9f9f9f" stroke-miterlimit="10" stroke-width="4"/>
          <path id="Path-7" data-name="Path" d="M24.428,246.933s-64.387-73.082,15.9-109.269,96.186-41.215,90.393-78.858S170.465-17.167,242.072,8.162s73.042,73.062,67.963,109.963c-2.883,21.036,9.046,26.091,23.575,25.032" transform="translate(0 0)" fill="none" stroke="#9f9f9f" stroke-miterlimit="10" stroke-width="4"/>
        </g>
      </g>
      <path id="Shape-4" data-name="Shape" d="M219.759,212.186a44.27,44.27,0,0,0,16.381-6.707l.195-.135a43.625,43.625,0,0,0,13.276-14.653,4.074,4.074,0,0,0,.256-.519,27.691,27.691,0,0,0,3.058-11.573,3.627,3.627,0,0,0-.014-.478c.478-8.931-1.953-20.126-7.726-33.195v-.04c-5.335-12.024-13.538-25.612-24.922-40.44l-.067-.067c-9.935-12.934-18.941-23.307-26.552-31.449-1.125-1.193-2.257-2.413-3.408-3.586-.3-.323-.606-.626-.889-.93a205.523,205.523,0,0,0-20.564-18.973c-.519-.431-.8-.627-.8-.627C107.892,31.493,101.3,101.886,101.3,101.886h.047l43.782,34.037.148.108a.077.077,0,0,1,.047,0c.539.263,7.894,3.909,11.06,8.163a6.736,6.736,0,0,1,1.387,3.127,2.44,2.44,0,0,1-.168,1.2c-.821,1.8-3.987,2.885-7.456,3.559a80.41,80.41,0,0,1-10.959,1.065c-.088,0-1.145.108-2.93.283l-2.02.2c-.741.061-1.543.149-2.432.236l-1.819.175c-.283.02-.633.088-.956.088l-2.021.2a9.37,9.37,0,0,1-1.065.108c-15.418,1.537-39.242,3.97-42.731,4.644a10.843,10.843,0,0,1-5.119-.047,5.662,5.662,0,0,1-2.344-1.193l-30-21.966q-7.43-5.426-13.384-10.636a36.921,36.921,0,0,0-2.519-2.952C3.556,93.838,1.408,75.694,1.408,75.694A8.064,8.064,0,0,0,0,75.5c3.752-2.022,11.882-6.43,13.229-7.664,1.738-1.631,2.8-2.938,7.228,3.492s21.17,6.841,21.17,6.841c18.652-5.446,16.712-34.361,15.782-44.76S50.9,20.1,50.9,20.1A31.9,31.9,0,0,0,49.1,8.078c4.4-1.806,73.844-28.807,148.01,27.217,76.639,57.9,84.978,176.892,84.978,176.892Z" transform="translate(308.62 208.404)" fill="#353642"/>
      <path id="Path-8" data-name="Path" d="M84.742,75.7a23.485,23.485,0,0,1-2.3,1.5l-4.621-8.088c10.656-5.453,13.647-15.064,8.958-20.341A10.406,10.406,0,0,0,81.9,45.75c-4.715-1.429-7.982.674-10.2,3.5a24.068,24.068,0,0,0-3.907,8.182l-2.25-25.963-.175-2.022s-4.9-2.433-18.186-.263-15.728,9.51-21.433,6.255-8.938-2.993-8.938-2.993c-1.623,5.965-5.968,5.965-5.968,5.965a13.04,13.04,0,0,1-3.011-.735C1.67,32.007,0,22.173,0,22.173c6.466-.8,6.965-7.03,6.224-12.132,3.583,2.13,8.635,2.278,15.728-2.278C42.3-5.259,63.167,1.791,70.5,2.877,73.776,3.355,77.36,2.2,80.33.855a5.222,5.222,0,0,0,1.563,1.732,39.009,39.009,0,0,1,11.929,13.3c19.1,35.715-1.839,54.682-9.08,59.811Z" transform="translate(257.887 186.288)" fill="#3fbdf1"/>
      <path id="Path-9" data-name="Path" d="M211.7,212.206h7.679a12.4,12.4,0,0,0,12.387-12.395v-8.6a5.963,5.963,0,0,0-5.968-5.965H179.877a13.914,13.914,0,0,1-13.929,13.932H0a13.031,13.031,0,0,0,13.02,13.028H237.993a2.23,2.23,0,0,0,2.236-2.238V196.01a10.218,10.218,0,1,1,20.436,0v13.959a2.23,2.23,0,0,0,2.229,2.238H536.014S527.675,93.184,451.036,35.294C376.869-20.729,307.431,6.272,303.026,8.078l-.216.081" transform="translate(54.698 208.397)" fill="none" stroke="#000" stroke-miterlimit="10" stroke-width="4.83"/>
      <path id="Path-10" data-name="Path" d="M7.571,3.8A3.785,3.785,0,1,1,3.779,0a3.7,3.7,0,0,1,.869.108A1.928,1.928,0,0,0,3.3,1.955,1.961,1.961,0,0,0,5.254,3.929,2.021,2.021,0,0,0,7.207,2.238,3.77,3.77,0,0,1,7.571,3.8Z" transform="translate(273.359 241.804)"/>
      <path id="Path-11" data-name="Path" d="M7.6,3.795A3.8,3.8,0,1,1,3.8,0a2.275,2.275,0,0,1,.539.061A1.934,1.934,0,0,0,3.213,1.82,1.955,1.955,0,1,0,7.12,2a3.682,3.682,0,0,1,.478,1.8Z" transform="translate(299.608 242.869)"/>
      <path id="Path-12" data-name="Path" d="M84.5,0c-.438,2.952.108,5.54,2.277,7.077a39.009,39.009,0,0,1,11.929,13.3c22.78,42.59-11.39,61.334-11.39,61.334l-4.621-8.088c13.3-6.794,14.664-20.1,4.082-23.361s-14.1,11.68-14.1,11.68l-2.425-28s-4.9-2.433-18.186-.263-15.728,9.51-21.433,6.255-8.938-2.993-8.938-2.993c-1.623,5.965-5.968,5.965-5.968,5.965C2.991,41.283,0,23.657,0,23.657c6.46-.809,6.958-7.037,6.224-12.132,3.577,2.13,8.635,2.285,15.728-2.278C42.3-3.774,63.167,3.282,70.5,4.368,75.561,5.1,81.374,2,84.5,0Z" transform="translate(253.01 181.805)" fill="none" stroke="#000" stroke-linecap="round" stroke-linejoin="round" stroke-miterlimit="10" stroke-width="4.83"/>
      <path id="Path-13" data-name="Path" d="M16.24,2.022,21.271,0l3.772,10.184-.593,18.481-5.1.923L0,28.753S1.347,17.484,5.463,12.125A59.108,59.108,0,0,1,16.24,2.022Z" transform="translate(333.017 390.988)" fill="#3fbdf1"/>
      <g id="Group-6" data-name="Group" transform="translate(261.147 222.094)">
        <g id="Group-7" data-name="Group" transform="translate(0 0)">
          <path id="Path-14" data-name="Path" d="M0,8.361S5.153-.893,16,.07" transform="translate(0 0.485)" fill="none" stroke="#000" stroke-miterlimit="10" stroke-width="4.83"/>
          <path id="Path-15" data-name="Path" d="M0,.556S12.394-2.228,16.731,4.667" transform="translate(37.235)" fill="none" stroke="#000" stroke-miterlimit="10" stroke-width="4.83"/>
          <path id="Path-16" data-name="Path" d="M12.832,1.267S5.422-3.026,0,4.192" transform="translate(43.607 41.184)" fill="none" stroke="#000" stroke-miterlimit="10" stroke-width="4.83"/>
          <path id="Path-17" data-name="Path" d="M.236,0S-5.038,62.082,34.292,60.936c6.736-.2,13.431-4.624,19.83-11.748" transform="translate(9.383 2.038)" fill="none" stroke="#000" stroke-miterlimit="10" stroke-width="4.83"/>
        </g>
        <path id="Path-18" data-name="Path" d="M15.674,53.313,0,47.665S3.887,60.094,23.137,61.044,48.847,17.787,34.7,0" transform="translate(63.504 3.562)" fill="none" stroke="#000" stroke-linejoin="round" stroke-miterlimit="10" stroke-width="4.83"/>
        <g id="Group-8" data-name="Group" transform="translate(69.905 6.947)">
          <path id="Path-19" data-name="Path" d="M8.005,0S-6.362,11.667,3.4,17.093" transform="translate(62.549 174.47)" fill="none" stroke="#000" stroke-miterlimit="10" stroke-width="4.83"/>
          <path id="Path-20" data-name="Path" d="M12.2,0S-12.723,14.114,8.676,27.951" transform="translate(47.242 163.612)" fill="none" stroke="#000" stroke-miterlimit="10" stroke-width="4.83"/>
          <path id="Path-21" data-name="Path" d="M17.238,0S-15.841,15.5,9.647,38.8" transform="translate(33.796 152.76)" fill="none" stroke="#000" stroke-miterlimit="10" stroke-width="4.83"/>
          <path id="Path-22" data-name="Path" d="M190.14,191.562s40.131,0,40.67-38.8S152.993,16.524,102.287,2.97,49.4,26.56,49.4,28.083s-2.977,17.524,10.036,34.6c10.05,13.2,54.438,46.142,74.133,60.458a4.409,4.409,0,0,1-2.176,7.953l-87.106,8.371h-.054c-.822.148-31.564,5.823-40.926,15.462,0,0-5.247,3.889-2.533,9.861s11.053,4,11.282,3.781" transform="translate(0)" fill="none" stroke="#000" stroke-miterlimit="10" stroke-width="4.83"/>
        </g>
      </g>
      <ellipse id="Oval-2" data-name="Oval" cx="10.844" cy="10.851" rx="10.844" ry="10.851" transform="translate(292.569 232.011)" fill="#fff" opacity="0.26"/>
      <ellipse id="Oval-3" data-name="Oval" cx="10.844" cy="10.851" rx="10.844" ry="10.851" transform="translate(265.047 230.939)" fill="#fff" opacity="0.26"/>
      <g id="Group-9" data-name="Group" transform="translate(173.034 230.939)">
        <g id="Group-10" data-name="Group" transform="translate(0 1.072)">
          <path id="Path-23" data-name="Path" d="M48.113,1.177a29.135,29.135,0,0,0-16.462.04,23.942,23.942,0,0,0-8.507,4.846c-.539.472-1.058.95-1.556,1.429a40.081,40.081,0,0,0-3.038,3.336.808.808,0,0,1-.5.29C15.661,11.448-.081,13.942,0,21.9c.074,7.151,7.9,8.324,10.6,8.513a.808.808,0,0,0,.882-.8,31.024,31.024,0,0,1,6.877-18.569" transform="translate(148.484 158.11)" fill="none" stroke="#000" stroke-miterlimit="10" stroke-width="4"/>
          <path id="Path-24" data-name="Path" d="M22.363,0C24.208,14.889,12.643,21.622,0,22.619" transform="translate(32.408 103.109)" fill="none" stroke="#000" stroke-miterlimit="10" stroke-width="4"/>
          <path id="Path-25" data-name="Path" d="M14.033,68.567A26.763,26.763,0,0,1,.279,41.176C2.3,26.853,14.424,15.867,26.292,8.9c24.922-14.633,81.084-4.044,90.521-1.887,7.234,1.658,13.283-4,15.735-6.74a.815.815,0,0,1,1.414.438c5.18,30.33,65.336,71.5,79.252,80.712" transform="translate(0 54.054)" fill="none" stroke="#000" stroke-miterlimit="10" stroke-width="4"/>
          <path id="Path-26" data-name="Path" d="M35.214,22.795,15.3,35.163A10.008,10.008,0,1,1,4.883,18.07L35.194,0" transform="translate(34.732 70.015)" fill="none" stroke="#000" stroke-miterlimit="10" stroke-width="4"/>
          <ellipse id="Oval-4" data-name="Oval" cx="10.844" cy="10.851" rx="10.844" ry="10.851" transform="translate(119.535 0)" fill="none" stroke="#000" stroke-miterlimit="10" stroke-width="4"/>
        </g>
        <ellipse id="Oval-5" data-name="Oval" cx="9.221" cy="9.227" rx="9.221" ry="9.227" transform="translate(93.636 1.624)" fill="none" stroke="#fff" stroke-miterlimit="10" stroke-width="4"/>
        <g id="Group-11" data-name="Group" transform="translate(12.984 0)">
          <ellipse id="Oval-6" data-name="Oval" cx="10.844" cy="10.851" rx="10.844" ry="10.851" transform="translate(79.029)" fill="none" stroke="#000" stroke-miterlimit="10" stroke-width="4"/>
          <path id="Path-27" data-name="Path" d="M5.887.49H0" transform="translate(100.718 10.361)" fill="none" stroke="#000" stroke-miterlimit="10" stroke-width="4"/>
          <path id="Path-28" data-name="Path" d="M5.539,15.334H1.659a1.658,1.658,0,0,1-1.63-1.968L2.6,0" transform="translate(101.066 10.851)" fill="none" stroke="#000" stroke-miterlimit="10" stroke-width="4"/>
          <path id="Path-29" data-name="Path" d="M28.76,0S14.932,2.986,10.055,23.88C7.092,36.565,3.023,52.747.289,63.5a9.343,9.343,0,1,0,18.173,4.341l5.786-25.976" transform="translate(0 63.221)" fill="none" stroke="#000" stroke-miterlimit="10" stroke-width="4"/>
          <path id="Path-30" data-name="Path" d="M0,8.452s14.515-8.681,43.109,0S104.572,23.024,115.416,0" transform="translate(41.403 103.607)" fill="none" stroke="#000" stroke-miterlimit="10" stroke-width="4"/>
          <path id="Path-31" data-name="Path" d="M0,0S10.1,11.539,3.961,29.265" transform="translate(167.159 160.399)" fill="none" stroke="#000" stroke-miterlimit="10" stroke-width="4"/>
        </g>
      </g>
      <path id="Path-32" data-name="Path" d="M19.308,0H178.945a22.9,22.9,0,0,1,22.288,17.524l25.414,105.319a19.321,19.321,0,0,1-18.772,23.86H48.649a22.9,22.9,0,0,1-22.268-17.477L.556,23.927A19.321,19.321,0,0,1,19.308,0Z" transform="translate(0 247.85)" fill="#3fbdf1"/>
      <path id="Path-33" data-name="Path" d="M18.123,0H167.9a21.557,21.557,0,0,1,20.914,16.466l23.858,98.8a18.121,18.121,0,0,1-17.607,22.384H45.652a21.557,21.557,0,0,1-20.881-16.4L.522,22.444A18.121,18.121,0,0,1,18.123,0Z" transform="translate(6.999 252.379)" fill="#3fbdf1"/>
      <path id="Path-34" data-name="Path" d="M19.308,0H178.945a22.9,22.9,0,0,1,22.288,17.524l25.414,105.319a19.321,19.321,0,0,1-18.772,23.86H48.649a22.9,22.9,0,0,1-22.268-17.477L.556,23.927A19.321,19.321,0,0,1,19.308,0Z" transform="translate(0 247.85)" fill="none" stroke="#000" stroke-miterlimit="10" stroke-width="4.83"/>
      <g id="Group-12" data-name="Group" transform="translate(29.207 270.281)">
        <path id="Shape-5" data-name="Shape" d="M15.151,53.341A4.042,4.042,0,0,1,11.986,51.8a3.822,3.822,0,0,1-.849-1.692L.124,5.19A4.178,4.178,0,0,1,4.165,0h47.1A4.184,4.184,0,0,1,55.35,3.323l9.518,44.4a4.236,4.236,0,0,1-.849,3.518,4.183,4.183,0,0,1-3.2,1.564l-45.58.539Z" transform="translate(0 0)" fill="#d7e8f0"/>
        <path id="Path-35" data-name="Path" d="M7.123,12.783C9.75,11.967,11,8.483,9.918,5S5.83-.643,3.183.172-.69,4.472.394,7.95,4.5,13.6,7.123,12.783Z" transform="translate(9.746 7.727)" fill="#d7e8f0"/>
        <path id="Path-36" data-name="Path" d="M2.166,9.028H23.66a3.8,3.8,0,0,0,1.576-.3,2.171,2.171,0,0,0,.2-3.774,3.368,3.368,0,0,1-.977-.674,2.7,2.7,0,0,1-.377-.971A4.414,4.414,0,0,0,22.138,1,5.87,5.87,0,0,0,17.625.131,4.445,4.445,0,0,0,15.6,1.264c-.478.472-.573,1.105-.943,1.631-.242.344-.4.236-.727.047s-.512-.33-.781-.465a12.437,12.437,0,0,0-1.65-.735A8.819,8.819,0,0,0,7.885,1.21,5.847,5.847,0,0,0,2.813,4.7,2.857,2.857,0,0,0,.024,7.148,1.679,1.679,0,0,0,.469,8.6a2.4,2.4,0,0,0,1.7.431Z" transform="translate(26.234 10.686)" fill="#d7e8f0"/>
      </g>
      <path id="Shape-6" data-name="Shape" d="M1.853,21.137.445,15.954A12.629,12.629,0,0,1,12.636,0H29.657a15.723,15.723,0,0,1,15.29,12.024l1.239,5.1A12.628,12.628,0,0,1,33.935,32.75H17.005A15.7,15.7,0,0,1,1.853,21.137Z" transform="translate(122.196 271.912)" fill="#fff"/>
      <path id="Path-37" data-name="Path" d="M36.474,8.486H6.7A7.032,7.032,0,0,1,.269,4.28,3.17,3.17,0,0,1,0,3.06,3.086,3.086,0,0,1,3.078,0H34.736C33.247,2.521,34,6.005,36.474,8.486Z" transform="translate(128.11 326.385)" fill="#d7e8f0"/>
      <path id="Path-38" data-name="Path" d="M21.79,5.426a3.066,3.066,0,0,1-3.058,3.06H2.5C.027,6.005-.727,2.521.761,0H15.055A7.032,7.032,0,0,1,21.48,4.186a3.169,3.169,0,0,1,.31,1.24Z" transform="translate(162.085 326.385)" fill="#3fbdf1"/>
      <path id="Path-39" data-name="Path" d="M14.307,11.319a3.505,3.505,0,0,1-.29.465c-2.128,2.9-6.736,3.175-10.312.559A10.4,10.4,0,0,1,2.5,11.319C.027,8.839-.727,5.354.761,2.834a3.209,3.209,0,0,1,.29-.458C3.159-.55,7.787-.806,11.343,1.789a11,11,0,0,1,1.219,1.045c2.492,2.48,3.213,5.965,1.745,8.486Z" transform="translate(162.085 323.551)" fill="#fff"/>
      <path id="Path-40" data-name="Path" d="M122.826,5.419a3.086,3.086,0,0,1-3.078,3.06H1.724C3.233,5.945,2.479,2.474,0,0H116.13a7,7,0,0,1,6.419,4.2,3.082,3.082,0,0,1,.276,1.22Z" transform="translate(68.506 345.129)" fill="#3fbdf1"/>
      <path id="Path-41" data-name="Path" d="M21.4,8.479H6.7A7.025,7.025,0,0,1,.269,4.293,3.143,3.143,0,0,1,0,3.053,3.046,3.046,0,0,1,3.058,0H19.675c2.479,2.474,3.233,5.945,1.724,8.479Z" transform="translate(48.831 345.095)" fill="#d7e8f0"/>
      <path id="Path-42" data-name="Path" d="M14.273,11.306a2.069,2.069,0,0,1-.269.465c-2.108,2.925-6.736,3.175-10.3.58a10.914,10.914,0,0,1-1.212-1.045C.033,8.826-.721,5.362.747,2.828a2.919,2.919,0,0,1,.29-.465C3.165-.543,7.773-.812,11.349,1.8a9.762,9.762,0,0,1,1.2,1.031c2.479,2.474,3.233,5.945,1.724,8.479Z" transform="translate(55.958 342.267)" fill="#fff"/>
      <path id="Path-43" data-name="Path" d="M25.421,8.465H6.736A7.039,7.039,0,0,1,.31,4.28,3.048,3.048,0,0,1,0,3.073,3.079,3.079,0,0,1,3.071,0H23.663c-1.435,2.548-.7,6.012,1.758,8.465Z" transform="translate(55.223 363.65)" fill="#3fbdf1"/>
      <path id="Path-44" data-name="Path" d="M119.585,5.466A3.052,3.052,0,0,1,116.5,8.479H2.492C.033,6-.721,2.534.747,0H112.89a7,7,0,0,1,6.419,4.2A3.176,3.176,0,0,1,119.585,5.466Z" transform="translate(78.152 363.637)" fill="#d7e8f0"/>
      <path id="Path-45" data-name="Path" d="M14.293,11.3a2.919,2.919,0,0,1-.29.465c-2.108,2.925-6.736,3.175-10.292.58A11,11,0,0,1,2.492,11.3C.033,8.821-.721,5.356.747,2.822a3.505,3.505,0,0,1,.29-.465C3.165-.548,7.773-.8,11.349,1.791a9.29,9.29,0,0,1,1.2,1.031c2.479,2.5,3.233,5.985,1.745,8.479Z" transform="translate(78.152 360.815)" fill="#fff"/>
      <g id="Group-13" data-name="Group" transform="translate(30.847 271.912)" opacity="0.21">
        <g id="Group-14" data-name="Group" transform="translate(0 0)">
          <path id="Shape-7" data-name="Shape" d="M15.155,53.32a4.04,4.04,0,0,1-3.173-1.537,3.81,3.81,0,0,1-.842-1.692L.128,5.17a4.113,4.113,0,0,1,.74-3.546A4.163,4.163,0,0,1,4.169,0h47.1A4.17,4.17,0,0,1,55.36,3.316l9.5,44.4a4.234,4.234,0,0,1-.829,3.505,4.155,4.155,0,0,1-3.193,1.557l-45.574.546Z" transform="translate(0 0)" fill="#d7e8f0"/>
          <path id="Path-46" data-name="Path" d="M7.134,12.782c2.62-.816,3.873-4.3,2.789-7.778S5.84-.644,3.187.172s-3.873,4.3-2.8,7.785S4.547,13.625,7.134,12.782Z" transform="translate(9.726 7.721)" fill="#d7e8f0"/>
          <path id="Path-47" data-name="Path" d="M2.132,9.03H23.619a3.777,3.777,0,0,0,1.576-.3,2.164,2.164,0,0,0,.2-3.774,3.711,3.711,0,0,1-.977-.674,3.014,3.014,0,0,1-.377-.977A4.421,4.421,0,0,0,22.1,1a5.857,5.857,0,0,0-4.52-.869A4.337,4.337,0,0,0,15.6,1.266c-.485.472-.573,1.1-.943,1.631-.242.344-.4.236-.727.04s-.512-.324-.781-.465a12.4,12.4,0,0,0-1.65-.728A8.839,8.839,0,0,0,7.884,1.2,5.877,5.877,0,0,0,2.805,4.7,2.857,2.857,0,0,0,.024,7.15,1.706,1.706,0,0,0,.461,8.6a2.457,2.457,0,0,0,1.67.431Z" transform="translate(26.286 10.684)" fill="#d7e8f0"/>
          <path id="Shape-8" data-name="Shape" d="M1.847,21.123.439,15.933A12.629,12.629,0,0,1,12.631,0H29.679a15.735,15.735,0,0,1,15.3,12.031l1.24,5.1A12.635,12.635,0,0,1,33.936,32.736H17A15.7,15.7,0,0,1,1.847,21.123Z" transform="translate(92.978 1.624)" fill="#d7e8f0"/>
          <path id="Path-48" data-name="Path" d="M36.473,8.479H6.694A7.039,7.039,0,0,1,.268,4.28,3.033,3.033,0,0,1,3.077,0H34.735c-1.482,2.514-.741,6.005,1.738,8.479Z" transform="translate(98.895 56.104)" fill="#d7e8f0"/>
        </g>
        <path id="Path-49" data-name="Path" d="M21.756,5.419A3.059,3.059,0,0,1,18.7,8.479H2.506C.027,6.005-.728,2.514.761,0h14.3a7.018,7.018,0,0,1,6.426,4.186,3.136,3.136,0,0,1,.269,1.233Z" transform="translate(132.862 56.104)" fill="#3fbdf1"/>
        <path id="Path-50" data-name="Path" d="M14.307,11.316a2.508,2.508,0,0,1-.29.465c-2.128,2.9-6.736,3.175-10.312.566a10.294,10.294,0,0,1-1.2-1.031C.027,8.842-.728,5.351.761,2.837a2.979,2.979,0,0,1,.3-.465C3.166-.554,7.793-.8,11.35,1.792a10.9,10.9,0,0,1,1.219,1.045c2.459,2.48,3.213,5.945,1.738,8.479Z" transform="translate(132.862 53.267)" fill="#fff"/>
        <path id="Path-51" data-name="Path" d="M122.819,5.426a3.079,3.079,0,0,1-3.078,3.053H1.724C3.233,5.945,2.479,2.48,0,0H116.124a7.012,7.012,0,0,1,6.426,4.206,3.048,3.048,0,0,1,.269,1.22Z" transform="translate(39.289 74.807)" fill="#3fbdf1"/>
        <path id="Path-52" data-name="Path" d="M21.406,8.479H6.7A7.039,7.039,0,0,1,.269,4.3,3.291,3.291,0,0,1,0,3.06,3.059,3.059,0,0,1,3.058,0H19.682c2.479,2.48,3.233,5.945,1.724,8.479Z" transform="translate(19.607 74.807)" fill="#d7e8f0"/>
        <path id="Path-53" data-name="Path" d="M14.278,11.305A1.874,1.874,0,0,1,14,11.77c-2.108,2.925-6.736,3.181-10.292.586A10.947,10.947,0,0,1,2.49,11.305C.031,8.832-.723,5.361.752,2.826a2.508,2.508,0,0,1,.29-.465C3.17-.544,7.778-.813,11.354,1.8a10.921,10.921,0,0,1,1.2,1.024c2.479,2.48,3.233,5.945,1.724,8.479Z" transform="translate(26.736 71.981)" fill="#fff"/>
        <path id="Path-54" data-name="Path" d="M25.407,8.479H6.7A7.052,7.052,0,0,1,.269,4.3,3.2,3.2,0,0,1,0,3.08,3.093,3.093,0,0,1,3.078,0H23.669c-1.475,2.534-.721,6.005,1.738,8.479Z" transform="translate(26.013 93.376)" fill="#3fbdf1"/>
        <path id="Path-55" data-name="Path" d="M119.59,5.439a3.045,3.045,0,0,1-3.058,3.04H2.49C.031,6.005-.723,2.534.752,0H112.888a7.012,7.012,0,0,1,6.426,4.206,3.136,3.136,0,0,1,.276,1.233Z" transform="translate(48.93 93.376)" fill="#d7e8f0"/>
        <path id="Path-56" data-name="Path" d="M14.3,11.3a2.979,2.979,0,0,1-.3.465c-2.108,2.925-6.736,3.181-10.292.586A10.947,10.947,0,0,1,2.49,11.3C.031,8.824-.723,5.353.752,2.818a2.508,2.508,0,0,1,.29-.465C3.17-.552,7.778-.8,11.354,1.794a10.921,10.921,0,0,1,1.2,1.024C15.032,5.3,15.786,8.783,14.3,11.3Z" transform="translate(48.93 90.558)" fill="#fff"/>
      </g>
    </g>
  </g>
</svg>
